<svg width="104" height="63" viewBox="0 0 104 63" fill="none" xmlns="http://www.w3.org/2000/svg">
<path fill-rule="evenodd" clip-rule="evenodd" d="M40.7683 28.3646H33.3163V0.648002H40.7683V28.3646ZM62.7534 28.3646H55.3014V7.236H45.4734V0.648002H72.4734V7.236H62.7534V28.3646ZM91.9873 28.3646H84.5353V22.518L73.1953 0.648002H81.4573L88.2073 15.282L94.9573 0.648002H103.219L91.9873 22.518V28.3646ZM3.32008 28.3646C3.25086 28.0596 3.18815 27.7487 3.13196 27.432C2.73596 25.2 2.53796 22.392 2.53796 19.008C2.53796 11.916 3.52796 6.984 5.50796 4.212C7.52396 1.404 11.214 0 16.578 0C19.674 0 23.256 0.486 27.324 1.458L27.108 7.398C23.544 6.858 20.574 6.588 18.198 6.588C15.858 6.588 14.184 6.912 13.176 7.56C12.168 8.172 11.412 9.36 10.908 11.124C10.44 12.888 10.206 15.894 10.206 20.142C10.206 23.8938 10.5851 26.6347 11.3432 28.3646H3.32008Z" fill="#11455B"/>
<path d="M12.852 53.216V48.896H19.98V61.604C16.548 62.156 13.764 62.432 11.628 62.432C7.812 62.432 5.184 61.412 3.744 59.372C2.328 57.332 1.62 54.092 1.62 49.652C1.62 45.212 2.364 42.008 3.852 40.04C5.34 38.072 7.872 37.088 11.448 37.088C13.68 37.088 16.092 37.34 18.684 37.844L19.98 38.096L19.836 41.948C16.956 41.636 14.592 41.48 12.744 41.48C10.92 41.48 9.636 41.696 8.892 42.128C8.148 42.56 7.596 43.364 7.236 44.54C6.9 45.692 6.732 47.684 6.732 50.516C6.732 53.324 7.08 55.292 7.776 56.42C8.472 57.548 9.912 58.112 12.096 58.112L15.084 57.968V53.216H12.852ZM34.8598 44H39.6838V62H34.8958V60.992C33.1678 61.952 31.6678 62.432 30.3958 62.432C27.8998 62.432 26.2198 61.748 25.3558 60.38C24.4918 58.988 24.0598 56.672 24.0598 53.432V44H28.8838V53.504C28.8838 55.28 29.0278 56.492 29.3158 57.14C29.6038 57.788 30.2998 58.112 31.4038 58.112C32.4598 58.112 33.4558 57.944 34.3918 57.608L34.8598 57.464V44ZM44.1383 62V44H48.9623V62H44.1383ZM44.1383 41.696V36.8H48.9623V41.696H44.1383ZM68.7195 36.8V62H63.9315V61.244C62.2515 62.036 60.7995 62.432 59.5755 62.432C56.9595 62.432 55.1355 61.676 54.1035 60.164C53.0715 58.652 52.5555 56.264 52.5555 53C52.5555 49.712 53.1675 47.324 54.3915 45.836C55.6395 44.324 57.5115 43.568 60.0075 43.568C60.7755 43.568 61.8435 43.688 63.2115 43.928L63.8955 44.072V36.8H68.7195ZM63.3915 57.68L63.8955 57.572V48.104C62.5755 47.864 61.3995 47.744 60.3675 47.744C58.4235 47.744 57.4515 49.472 57.4515 52.928C57.4515 54.8 57.6675 56.132 58.0995 56.924C58.5315 57.716 59.2395 58.112 60.2235 58.112C61.2315 58.112 62.2875 57.968 63.3915 57.68ZM77.1373 55.052C77.1613 56.156 77.4493 56.96 78.0013 57.464C78.5773 57.944 79.3933 58.184 80.4493 58.184C82.6813 58.184 84.6733 58.112 86.4253 57.968L87.4333 57.86L87.5053 61.424C84.7453 62.096 82.2493 62.432 80.0173 62.432C77.3053 62.432 75.3373 61.712 74.1133 60.272C72.8893 58.832 72.2773 56.492 72.2773 53.252C72.2773 46.796 74.9293 43.568 80.2333 43.568C85.4653 43.568 88.0813 46.28 88.0813 51.704L87.7213 55.052H77.1373ZM83.3293 51.38C83.3293 49.94 83.1013 48.944 82.6453 48.392C82.1893 47.816 81.3853 47.528 80.2333 47.528C79.1053 47.528 78.3013 47.828 77.8213 48.428C77.3653 49.004 77.1253 49.988 77.1013 51.38H83.3293ZM91.3129 62V56.024H96.4969V62H91.3129Z" fill="#FFAF20"/>
</svg>
